<?xml version="1.0" standalone="no"?>
<!DOCTYPE svg PUBLIC "-//W3C//DTD SVG 20010904//EN"
 "http://www.w3.org/TR/2001/REC-SVG-20010904/DTD/svg10.dtd">
<svg version="1.0" xmlns="http://www.w3.org/2000/svg"
 width="232.000000pt" height="217.000000pt" viewBox="0 0 232.000000 217.000000"
 preserveAspectRatio="xMidYMid meet">
<metadata>
Created by potrace 1.10, written by Peter Selinger 2001-2011
</metadata>
<g transform="translate(0.000000,217.000000) scale(0.100000,-0.100000)"
fill="#3e4465" stroke="none">
<path d="M1120 2160 c-14 -5 -119 -36 -235 -70 -116 -34 -275 -81 -355 -105
-80 -24 -227 -67 -328 -96 -100 -30 -182 -57 -182 -61 0 -5 5 -8 11 -8 6 0 89
-23 185 -51 l174 -52 0 -211 c0 -193 -2 -213 -18 -227 -17 -14 -20 -38 -25
-195 -6 -166 -16 -265 -33 -322 -5 -16 -2 -22 10 -22 9 0 16 -3 16 -7 0 -13
53 -33 87 -33 18 0 33 5 33 10 0 6 9 10 20 10 11 0 20 5 20 10 0 6 7 10 16 10
11 0 13 6 9 19 -16 50 -35 250 -35 369 0 120 -2 134 -20 149 -19 16 -20 30
-20 220 0 112 2 203 3 203 2 0 30 -8 63 -19 32 -10 71 -21 86 -25 l27 -6 -29
-63 c-104 -225 -61 -493 111 -677 97 -104 135 -177 145 -279 6 -52 4 -59 -21
-89 -26 -32 -27 -33 -10 -52 17 -19 32 -20 232 -20 l214 0 -3 -23 c-3 -22 -4
-22 -214 -25 -191 -2 -213 -4 -228 -21 -16 -17 -16 -20 -1 -35 14 -14 46 -16
224 -16 214 0 243 -5 221 -39 -6 -11 -56 -15 -221 -18 -183 -4 -215 -7 -225
-22 -27 -36 -1 -41 217 -41 177 0 210 -2 224 -16 12 -12 13 -19 4 -30 -8 -10
-52 -14 -184 -16 l-173 -3 96 -82 97 -83 58 0 57 0 143 121 c78 67 144 126
145 130 2 5 -8 23 -23 40 l-26 32 25 26 c32 34 32 38 0 72 l-25 26 27 32 27
32 -23 31 c-20 27 -22 39 -17 95 7 86 48 168 135 265 119 134 172 265 172 429
0 98 -20 189 -56 260 -14 28 -24 53 -22 55 3 2 58 20 124 39 65 20 153 46 194
59 41 12 121 36 177 52 57 16 103 31 103 34 0 3 -35 15 -77 28 -91 26 -267 78
-438 129 -66 19 -140 41 -165 48 -25 7 -138 40 -252 74 -113 33 -210 61 -215
60 -4 0 -19 -4 -33 -9z m-228 -670 c87 -13 168 -44 223 -86 l45 -34 45 34 c56
43 136 73 228 87 80 11 181 4 196 -15 6 -7 15 -44 22 -83 22 -136 -25 -280
-132 -398 -112 -124 -160 -220 -175 -352 l-7 -63 -34 0 -33 0 2 177 3 176 30
10 c108 36 200 165 129 183 -21 5 -33 -1 -67 -34 -46 -43 -81 -65 -91 -55 -11
11 -6 53 9 83 25 48 62 70 119 70 56 0 76 12 76 45 0 32 -20 45 -71 45 -95 0
-163 -41 -203 -122 l-26 -52 0 -263 c0 -256 -1 -263 -20 -263 -20 0 -20 7 -20
270 0 247 -2 274 -19 308 -42 81 -113 122 -210 122 -68 0 -71 -3 -71 -88 0
-105 65 -199 167 -244 l43 -19 0 -174 0 -175 -29 0 c-28 0 -30 2 -37 58 -16
134 -58 221 -160 335 -112 124 -163 259 -150 399 9 96 18 116 58 121 61 7 93
7 160 -3z m104 -316 c33 -22 54 -64 54 -109 l0 -36 -42 23 c-47 26 -78 70 -78
111 0 32 26 37 66 11z"/>
<path d="M1543 593 c4 -3 10 -3 14 0 3 4 0 7 -7 7 -7 0 -10 -3 -7 -7z"/>
<path d="M1545 570 c-3 -5 -1 -10 4 -10 6 0 11 5 11 10 0 6 -2 10 -4 10 -3 0
-8 -4 -11 -10z"/>
<path d="M1543 543 c4 -3 10 -3 14 0 3 4 0 7 -7 7 -7 0 -10 -3 -7 -7z"/>
</g>
</svg>
